<svg xmlns="http://www.w3.org/2000/svg" xmlns:xlink="http://www.w3.org/1999/xlink" viewBox="0 0 164 205" version="1.1" x="0px" y="0px"><title>film</title><desc>Created with Sketch.</desc><g stroke="none" stroke-width="1" fill="none" fill-rule="evenodd"><g stroke="#000000"><path d="M85,42.0002123 C85,39.2386713 87.2338221,37 89.9950291,37 L94.0049709,37 C96.7636493,37 99,39.2468388 99,42.0002123 L99,48.2475311 C99,48.8011794 98.5653972,49.3557991 98.0261437,49.4756191 C98.0261437,49.4756191 95.4975434,50.1722964 92,50.1722964 C88.5024566,50.1722964 85.9627906,49.4732622 85.9627906,49.4732622 C85.4310561,49.3499579 85,48.7994879 85,48.2475311 L85,42.0002123 Z M27,62.9941171 C27,61.3405119 28.3366271,60 30.0013655,60 L80,60 L80,117.57194 L61.3624753,117.57194 C59.7001011,117.57194 58.3296931,116.227447 58.270058,114.57474 C58.270058,114.57474 58.3524805,96.5850988 52.0298961,92.2148611 C44.7430747,87.0435825 29.9911105,88.1216273 29.9911105,88.1216273 C28.3391658,88.1801197 27,86.8850542 27,85.2334201 L27,62.9941171 Z M65,117.524558 L65,120.082057 C65,121.764309 66.2487426,123.614291 67.7891446,124.223997 C67.7891446,124.223997 78.4974567,129.063383 92,129.063383 C105.502543,129.063383 116.210855,124.223997 116.210855,124.223997 C117.757911,123.631898 119,121.759881 119,120.082057 L119,48.0495923 C118.97517,49.6647674 117.742466,51.5054453 116.210855,52.091634 C116.210855,52.091634 105.502543,56.9310193 92,56.9310193 C78.4974567,56.9310193 67.7891446,52.091634 67.7891446,52.091634 C66.2640969,51.4880051 65.0249232,49.6687024 65.0003713,48.0000468 C65.0001241,48.016569 65,56.0993399 65,60.1242137 M65.0015043,48.323048 C65.0509531,46.7017037 66.3133568,45.0288295 67.8841835,44.5819825 C67.8841835,44.5819825 75.0181474,42.1748446 85.0267825,41.307138 M99.0222579,41.3117142 C109.010646,42.1841669 116.134852,44.5872143 116.134852,44.5872143 C117.685925,45.0440593 118.949128,46.6982748 118.998501,48.323048 M86.9975589,128.821126 L80.7621822,123.920677 C80.3375068,123.630565 80,122.949919 80,122.394714 L80,60.4052887 C80,59.842864 80.3919556,59.3334708 80.8754573,59.251401 L93.9800435,56.8853546" stroke-width="2.5"/><path d="M27,62.9941171 C27,61.3405119 28.3366271,60 30.0013655,60 L80,60 L80,117.57194 L61.3624753,117.57194 C59.7001011,117.57194 58.3296931,116.227447 58.270058,114.57474 C58.270058,114.57474 58.3524805,96.5850988 52.0298961,92.2148611 C44.7430747,87.0435825 29.9911105,88.1216273 29.9911105,88.1216273 C28.3391658,88.1801197 27,86.8850542 27,85.2334201 L27,62.9941171 Z M72.2999992,110.036009 L72.2999992,113.036394 C72.2999992,113.592484 72.7476283,114.036201 73.2998067,114.036201 L76.3001917,114.036201 C76.8562826,114.036201 77.2999992,113.588572 77.2999992,113.036394 L77.2999992,110.036009 C77.2999992,109.479918 76.8523702,109.036201 76.3001917,109.036201 L73.2998067,109.036201 C72.7437159,109.036201 72.2999992,109.48383 72.2999992,110.036009 Z M71.2999992,65.0360086 L71.2999992,68.0363936 C71.2999992,68.5924845 71.7476283,69.0362011 72.2998067,69.0362011 L75.3001917,69.0362011 C75.8562826,69.0362011 76.2999992,68.5885721 76.2999992,68.0363936 L76.2999992,65.0360086 C76.2999992,64.4799178 75.8523702,64.0362011 75.3001917,64.0362011 L72.2998067,64.0362011 C71.7437159,64.0362011 71.2999992,64.4838302 71.2999992,65.0360086 Z M61.2999992,65.0360086 L61.2999992,68.0363936 C61.2999992,68.5924845 61.7476283,69.0362011 62.2998067,69.0362011 L65.3001917,69.0362011 C65.8562826,69.0362011 66.2999992,68.5885721 66.2999992,68.0363936 L66.2999992,65.0360086 C66.2999992,64.4799178 65.8523702,64.0362011 65.3001917,64.0362011 L62.2998067,64.0362011 C61.7437159,64.0362011 61.2999992,64.4838302 61.2999992,65.0360086 Z M61.2999992,110.036009 L61.2999992,113.036394 C61.2999992,113.592484 61.7476283,114.036201 62.2998067,114.036201 L65.3001917,114.036201 C65.8562826,114.036201 66.2999992,113.588572 66.2999992,113.036394 L66.2999992,110.036009 C66.2999992,109.479918 65.8523702,109.036201 65.3001917,109.036201 L62.2998067,109.036201 C61.7437159,109.036201 61.2999992,109.48383 61.2999992,110.036009 Z M51.2999992,65.0360086 L51.2999992,68.0363936 C51.2999992,68.5924845 51.7476283,69.0362011 52.2998067,69.0362011 L55.3001917,69.0362011 C55.8562826,69.0362011 56.2999992,68.5885721 56.2999992,68.0363936 L56.2999992,65.0360086 C56.2999992,64.4799178 55.8523702,64.0362011 55.3001917,64.0362011 L52.2998067,64.0362011 C51.7437159,64.0362011 51.2999992,64.4838302 51.2999992,65.0360086 Z M41.2999992,65.0360086 L41.2999992,68.0363936 C41.2999992,68.5924845 41.7476283,69.0362011 42.2998067,69.0362011 L45.3001917,69.0362011 C45.8562826,69.0362011 46.2999992,68.5885721 46.2999992,68.0363936 L46.2999992,65.0360086 C46.2999992,64.4799178 45.8523702,64.0362011 45.3001917,64.0362011 L42.2998067,64.0362011 C41.7437159,64.0362011 41.2999992,64.4838302 41.2999992,65.0360086 Z M31.2999992,65.0360086 L31.2999992,68.0363936 C31.2999992,68.5924845 31.7476283,69.0362011 32.2998067,69.0362011 L35.3001917,69.0362011 C35.8562826,69.0362011 36.2999992,68.5885721 36.2999992,68.0363936 L36.2999992,65.0360086 C36.2999992,64.4799178 35.8523702,64.0362011 35.3001917,64.0362011 L32.2998067,64.0362011 C31.7437159,64.0362011 31.2999992,64.4838302 31.2999992,65.0360086 Z" stroke-width="1.5"/><path d="M93.75,66.5 L93.75,120.5" stroke-width="1.5" stroke-linecap="round"/><path d="M101.75,71.5 L101.75,115.5" stroke-width="1.5" stroke-linecap="round"/></g></g><text x="0" y="179" fill="#000000" font-size="5px" font-weight="bold" font-family="'Helvetica Neue', Helvetica, Arial-Unicode, Arial, Sans-serif">Created by Assiya Dauyek</text><text x="0" y="184" fill="#000000" font-size="5px" font-weight="bold" font-family="'Helvetica Neue', Helvetica, Arial-Unicode, Arial, Sans-serif">from the Noun Project</text></svg>