<svg xmlns="http://www.w3.org/2000/svg" xmlns:xlink="http://www.w3.org/1999/xlink" version="1.1" x="0px" y="0px" viewBox="0 0 100 125" style="enable-background:new 0 0 100 100;" xml:space="preserve"><style type="text/css">
	.st0{stroke:#FFFFFF;stroke-width:2;stroke-linecap:round;stroke-linejoin:round;stroke-miterlimit:10;}
</style><g><path d="M72.2,20.2l0-2.1l0-0.6l0-0.1c-0.3-1.6-6-1.7-7.7-1.7c-7.9,0-7.9,1.4-7.9,2v2.5c-3.1,0.3-9.6,1.2-9.6,4v4.1   C43.9,27.4,34,25,21.8,24.9c-1.3,0-3.7,0.9-3.7,4.1v25.9c0,0,0,0.1,0,0.1c0.1,1.3,1.1,3.9,3.7,4.2c1.9,0.2,3.4,0.4,5,0.7   c1.4,0.2,2.9,0.5,4.7,0.7c4.4,0.5,6.6,2.6,6.5,6.2c0,0.1,0,0.3,0,0.5c-0.1,1.4-0.3,4.3,2.7,5.3c1.4,0.5,5.2,1.7,6.3,2.1v1.5   c0,4.6,7.7,8.1,17.4,8.1c9.9,0,17.4-3.4,17.4-8V24.1C81.9,22.8,80.9,21.1,72.2,20.2z M71.6,24.4c3.7,0.4,5.1,0.8,5.7,1.1   c-1.4,0.4-3.3,0.8-5.7,1V24.4z M78.6,25.1c-0.7-0.9-2.8-1.5-7-1.9V22c6.5,0.6,8.3,1.8,8.4,2.1v0.1C79.9,24.5,79.5,24.8,78.6,25.1z    M70.4,21.8v4.9c-1.8,0.2-3.7,0.2-6,0.2c-2.3,0-4.3-0.1-6.1-0.3v-4.9v-0.7v-1.7c1.8,0.6,4.9,0.7,6.1,0.7c1.2,0,4.1-0.1,6-0.7   L70.4,21.8z M57.2,22v1.3c-4.3,0.4-6.5,0.8-7.1,1.8c-0.8-0.3-1.2-0.7-1.2-0.9C49.2,23.7,51.2,22.6,57.2,22z M57.2,24.4v2.1   c-2.5-0.3-4.5-0.7-5.9-1.1C52,25,55.4,24.6,57.2,24.4z M48.8,25.7c3,1.9,11,2.5,15.7,2.5c4.6,0,12.5-0.5,15.6-2.4v2.1   c-0.5,0.7-5.9,2.8-15.6,2.8c-10.1,0-15.6-2.3-15.6-2.9h0V25.7z M48.8,29.3c1.2,0.7,3.2,1.3,5.4,1.7v47.2c-3.1-1.1-5.1-2.7-5.4-4.8   V29.3z M55.4,31.2c3.1,0.5,6.6,0.7,9.1,0.7c4.6,0,12.5-0.7,15.6-2.5v44c-0.6,3.9-7.5,6.3-15.6,6.3c-3.3,0-6.5-0.4-9-1.2V31.2z    M64.5,17.5c3,0,5.4,0.4,6,0.6v0.1c-0.6,0.3-2.8,0.7-6,0.7c-3.3,0-5.4-0.5-6.1-0.8v-0.1C59.1,17.8,61.3,17.5,64.5,17.5z M41.2,70.8   c-1.6-0.5-1.6-1.9-1.5-3.5c0-0.2,0-0.4,0-0.6c0.1-4.5-2.8-7.4-8.1-8c-1.8-0.2-3.2-0.5-4.6-0.7c-1.6-0.3-3.1-0.5-5.1-0.7   c-1.7-0.2-2-2.2-2-2.5V29c0-2.1,1.6-2.3,1.9-2.3c12.8,0.2,22.9,2.8,25.2,3.5v42.6C45.5,72.3,42.4,71.2,41.2,70.8z M64.4,82.5   c-9.4,0-15.6-3.3-15.6-6.3v-0.1c2.5,3,8.5,4.8,15.6,4.8c7.2,0,13.1-1.9,15.6-4.8v0.2C80.1,79.3,73.8,82.5,64.4,82.5z"/><path d="M43.5,31.4h-0.9c-0.6,0-1.1,0.5-1.1,1.1v2.7c0,0.6,0.5,1.1,1.1,1.1h0.9c0.6,0,1.1-0.5,1.1-1.1v-2.7   C44.6,31.9,44.1,31.4,43.5,31.4z M43.4,35h-0.6v-2.4h0.6V35z"/><path d="M38.7,30.2h-0.9c-0.6,0-1.1,0.5-1.1,1.1V34c0,0.6,0.5,1.1,1.1,1.1h0.9c0.6,0,1.1-0.5,1.1-1.1v-2.7   C39.8,30.7,39.3,30.2,38.7,30.2z M38.6,33.8H38v-2.4h0.6V33.8z"/><path d="M33.9,29.6H33c-0.6,0-1.1,0.5-1.1,1.1v2.7c0,0.6,0.5,1.1,1.1,1.1h0.9c0.6,0,1.1-0.5,1.1-1.1v-2.7   C35,30.1,34.5,29.6,33.9,29.6z M33.8,33.2h-0.6v-2.4h0.6V33.2z"/><path d="M29.1,29h-0.9c-0.6,0-1.1,0.5-1.1,1.1v2.7c0,0.6,0.5,1.1,1.1,1.1h0.9c0.6,0,1.1-0.5,1.1-1.1V30C30.2,29.5,29.7,29,29.1,29z    M29,32.6h-0.6v-2.4H29V32.6z"/><path d="M24.3,28.4h-0.9c-0.6,0-1.1,0.5-1.1,1.1v2.7c0,0.6,0.5,1.1,1.1,1.1h0.9c0.6,0,1.1-0.5,1.1-1.1v-2.7   C25.3,28.9,24.9,28.4,24.3,28.4z M24.1,32h-0.6v-2.4h0.6V32z"/><path d="M43.5,64.5h-0.9c-0.6,0-1.1,0.5-1.1,1.1v2.7c0,0.6,0.5,1.1,1.1,1.1h0.9c0.6,0,1.1-0.5,1.1-1.1v-2.7   C44.6,64.9,44.1,64.5,43.5,64.5z M43.4,68.1h-0.6v-2.4h0.6V68.1z"/></g><text x="0" y="115" fill="#000000" font-size="5px" font-weight="bold" font-family="'Helvetica Neue', Helvetica, Arial-Unicode, Arial, Sans-serif">Created by Margot Gabel</text><text x="0" y="120" fill="#000000" font-size="5px" font-weight="bold" font-family="'Helvetica Neue', Helvetica, Arial-Unicode, Arial, Sans-serif">from the Noun Project</text></svg>